# xmcd CD database file
#
# Track frame offsets:
#	150
#	12414
#	26035
#	39616
#	52342
#	67581
#	82320
#	94790
#	107783
#	122652
#	135795
#	154970
#	169287
#	181747
#	195447
#	213627
#	226082
#	239274
#	255030
#	270512
#	283255
#	296718
#	309695
#
# Disc length: 4306 seconds
#
# Revision: 0
# Processed by: cddbd v1.5.2PL0 Copyright (c) Steve Scherf et al.
# Submitted via: CDex 1.70beta2
#
DISCID=4610d017
DTITLE=Various Artist - New Orleans Jazz Icons [CD1of2)
DYEAR=2017
DGENRE=Jazz
TTITLE0=Louis Armstrong - When the Saints Go Marching In
TTITLE1=Louis Armstrong - St. Louis Blues
TTITLE2=Louis Armstrong - Jack Armstrong Blues
TTITLE3=Louis Armstrong - Muggles
TTITLE4=Louis Armstrong - Rockin' Chair
TTITLE5=Louis Armstrong - Dallas Blues
TTITLE6=Louis Armstrong - I Ain't Got Nobody
TTITLE7=Louis Armstrong - Swing That Music
TTITLE8=Sidney Bechet - Petite Fleur (Live)
TTITLE9=Sidney Bechet - Maple Leaf Rag
TTITLE10=Sidney Bechet - Lazy River
TTITLE11=Sidney Bechet - Oh Didn't He Ramble
TTITLE12=Sidney Bechet - Blues In The Air (master 2)
TTITLE13=Sidney Bechet - Viper Mad
TTITLE14=Sidney Bechet - Four Or Five Times
TTITLE15=Jelly Roll Morton - Buddy Bolden's Blues (1939)
TTITLE16=Jelly Roll Morton - Freakish (1929)
TTITLE17=Jelly Roll Morton - Billy Goat Stomp (1927)
TTITLE18=Jelly Roll Morton with Miss Billie Young - When They Get Lovin They's Gone (1930)
TTITLE19=Jelly Roll Morton - King Porter Stomp (1939)
TTITLE20=Jelly Roll Morton - Michigan Water Blues (1939)
TTITLE21=Jelly Roll Morton - Ponchartrain (1930)
TTITLE22=Jelly Roll Morton - Kansas City Stomps
EXTD=YEAR: 2017
EXTT0=
EXTT1=
EXTT2=
EXTT3=
EXTT4=
EXTT5=
EXTT6=
EXTT7=
EXTT8=
EXTT9=
EXTT10=
EXTT11=
EXTT12=
EXTT13=
EXTT14=
EXTT15=
EXTT16=
EXTT17=
EXTT18=
EXTT19=
EXTT20=
EXTT21=
EXTT22=
PLAYORDER=
